<?xml version="1.0" standalone="no"?>
<!DOCTYPE svg PUBLIC "-//W3C//DTD SVG 20010904//EN"
 "http://www.w3.org/TR/2001/REC-SVG-20010904/DTD/svg10.dtd">
<svg version="1.0" xmlns="http://www.w3.org/2000/svg"
 width="337.000000pt" height="337.000000pt" viewBox="0 0 337.000000 337.000000"
 preserveAspectRatio="xMidYMid meet">
<metadata>
Created by potrace 1.14, written by Peter Selinger 2001-2017
</metadata>
<g transform="translate(0.000000,337.000000) scale(0.100000,-0.100000)"
fill="#000000" stroke="none">
<path d="M2739 3287 c-1 -1 -2 -83 -4 -182 -8 -411 -124 -903 -284 -1194 -29
-53 -36 -61 -42 -45 -4 10 -8 30 -8 43 -1 13 -3 22 -7 19 -3 -3 1 -54 7 -114
10 -84 10 -109 1 -112 -14 -4 -16 -48 -2 -57 13 -8 13 -62 0 -70 -6 -4 -8 -42
-6 -93 2 -48 -1 -98 -7 -112 -5 -14 -11 -43 -12 -65 -4 -56 -13 -87 -26 -95
-6 -4 -9 -15 -7 -25 2 -12 41 24 134 126 156 171 216 245 321 399 192 281 319
565 422 950 23 88 56 291 71 440 5 58 13 124 16 148 l6 43 -286 -1 c-157 -1
-286 -2 -287 -3z"/>
<path d="M656 3261 c-16 -6 -17 -9 -5 -16 20 -13 122 -10 127 4 5 14 88 15 97
1 12 -19 105 -10 105 11 0 11 -297 11 -324 0z"/>
<path d="M580 3250 l-25 -8 27 -1 c15 -1 30 4 33 9 7 11 0 11 -35 0z"/>
<path d="M1035 3246 c36 -13 125 -22 114 -12 -2 2 -26 7 -54 10 -27 4 -61 9
-75 11 -14 3 -7 -2 15 -9z"/>
<path d="M500 3238 c-19 -5 -39 -14 -44 -19 -6 -5 -20 -9 -32 -9 -31 0 -40
-18 -12 -23 l23 -4 -22 -2 c-13 0 -23 -5 -23 -11 0 -6 32 -10 75 -10 58 0 75
3 75 14 0 8 -9 16 -21 18 l-20 3 21 23 c27 29 24 31 -20 20z"/>
<path d="M1135 3219 l-40 -7 42 1 c23 1 45 -2 49 -6 10 -10 24 -9 24 2 0 13
-31 17 -75 10z"/>
<path d="M360 3211 c-20 -6 -22 -8 -8 -13 9 -4 22 -1 28 8 7 8 11 14 9 13 -2
-1 -15 -4 -29 -8z"/>
<path d="M1240 3204 c0 -8 5 -12 10 -9 6 4 8 11 5 16 -9 14 -15 11 -15 -7z"/>
<path d="M1276 3201 c-3 -5 15 -14 39 -21 25 -7 45 -19 45 -26 0 -9 12 -14 36
-14 19 0 44 -5 55 -10 10 -6 19 -7 19 -3 0 8 -61 35 -110 48 -14 4 -29 11 -35
15 -19 13 -44 19 -49 11z"/>
<path d="M284 3183 c-12 -2 -24 -12 -27 -22 -3 -14 0 -17 14 -14 11 3 19 0 19
-6 0 -7 -5 -9 -12 -5 -7 4 -8 3 -4 -4 10 -17 49 -15 43 2 -3 7 -1 18 5 24 10
10 3 33 -10 31 -4 -1 -17 -4 -28 -6z"/>
<path d="M163 3133 c-33 -11 -40 -17 -31 -27 18 -19 38 -15 38 6 0 10 7 18 18
18 9 0 24 5 32 10 23 15 -6 12 -57 -7z"/>
<path d="M1264 3128 c-4 -7 -3 -8 4 -4 7 4 12 3 12 -3 0 -6 7 -8 15 -5 8 4 15
10 15 15 0 13 -38 11 -46 -3z"/>
<path d="M768 3123 c6 -2 18 -2 25 0 6 3 1 5 -13 5 -14 0 -19 -2 -12 -5z"/>
<path d="M536 3103 c-6 -14 -5 -15 5 -6 7 7 10 15 7 18 -3 3 -9 -2 -12 -12z"/>
<path d="M615 3105 l-30 -14 30 6 c17 3 37 9 45 14 27 15 -11 10 -45 -6z"/>
<path d="M973 3108 c28 -7 42 -7 50 1 8 8 -2 11 -38 10 l-50 -1 38 -10z"/>
<path d="M1544 3085 c3 -10 -1 -18 -11 -22 -15 -6 -14 -7 3 -13 23 -9 46 -2
38 11 -9 15 13 10 26 -6 7 -8 22 -15 34 -14 14 0 16 2 6 6 -8 3 -26 13 -40 23
-40 27 -63 33 -56 15z"/>
<path d="M558 3083 c7 -3 16 -2 19 1 4 3 -2 6 -13 5 -11 0 -14 -3 -6 -6z"/>
<path d="M25 3064 l-30 -13 30 6 c32 6 41 11 34 17 -2 2 -17 -2 -34 -10z"/>
<path d="M506 3071 c-4 -5 3 -7 14 -4 23 6 26 13 6 13 -8 0 -17 -4 -20 -9z"/>
<path d="M470 3040 c-8 -5 -10 -10 -5 -10 6 0 17 5 25 10 8 5 11 10 5 10 -5 0
-17 -5 -25 -10z"/>
<path d="M1190 3040 c0 -5 5 -10 10 -10 6 0 10 5 10 10 0 6 -4 10 -10 10 -5 0
-10 -4 -10 -10z"/>
<path d="M130 3020 c0 -5 5 -10 10 -10 6 0 10 5 10 10 0 6 -4 10 -10 10 -5 0
-10 -4 -10 -10z"/>
<path d="M1640 3020 c0 -6 12 -16 28 -23 15 -6 30 -16 33 -21 4 -5 11 -6 16
-3 5 3 26 -10 48 -29 22 -19 44 -34 48 -34 5 0 6 -7 3 -16 -4 -10 -2 -14 6
-11 7 2 21 -2 31 -11 11 -10 17 -11 17 -4 0 7 -3 12 -8 12 -4 0 -25 17 -47 38
-22 21 -56 47 -75 58 -19 10 -40 25 -46 33 -7 8 -16 11 -24 6 -9 -5 -11 -4 -6
3 4 7 1 12 -8 12 -9 0 -16 -5 -16 -10z"/>
<path d="M398 2978 c-21 -23 -38 -48 -38 -57 0 -9 9 -3 23 15 12 17 30 39 40
48 9 10 17 22 17 27 0 13 -1 12 -42 -33z"/>
<path d="M1229 2955 c5 -11 16 -29 25 -40 14 -18 15 -18 16 -2 0 9 5 17 11 17
5 0 7 5 4 11 -4 6 -14 8 -22 5 -9 -4 -22 2 -30 11 -13 17 -13 17 -4 -2z"/>
<path d="M1640 2959 c0 -5 9 -9 20 -9 11 0 20 2 20 4 0 2 -9 6 -20 9 -11 3
-20 1 -20 -4z"/>
<path d="M346 2897 c3 -10 9 -15 12 -12 3 3 0 11 -7 18 -10 9 -11 8 -5 -6z"/>
<path d="M1760 2890 c0 -5 5 -10 11 -10 5 0 7 5 4 10 -3 6 -8 10 -11 10 -2 0
-4 -4 -4 -10z"/>
<path d="M1277 2830 c6 -92 0 -97 -78 -71 -270 89 -513 88 -776 -3 l-72 -24
-4 26 c-3 21 -4 19 -6 -10 0 -20 2 -38 7 -40 12 -5 49 -166 41 -180 -4 -7 -5
-26 -2 -42 l6 -29 16 22 17 22 19 -23 c11 -13 20 -29 21 -35 1 -7 2 -17 3 -22
0 -5 16 -19 35 -30 37 -23 53 -50 36 -61 -8 -5 -6 -9 5 -14 9 -3 21 -4 26 -1
12 8 100 -40 91 -50 -4 -5 1 -5 11 -2 11 4 24 4 30 0 7 -4 2 -10 -13 -14 -24
-7 -24 -7 8 -14 25 -6 32 -13 33 -34 2 -26 2 -26 6 -2 4 19 7 21 14 10 6 -10
9 -6 9 14 0 28 0 28 63 26 55 -2 133 15 147 32 3 4 15 9 28 13 18 6 22 4 22
-13 0 -24 16 -36 26 -20 4 8 3 9 -4 5 -8 -5 -12 0 -12 13 0 12 6 21 13 21 9 0
9 2 -1 8 -9 6 -4 16 17 36 16 15 33 27 37 27 4 -1 9 6 10 15 1 9 13 28 27 43
31 34 87 124 87 140 0 7 4 9 10 6 6 -3 7 1 4 10 -4 8 1 30 9 48 9 17 19 44 22
59 4 16 11 25 16 22 5 -3 10 14 10 38 1 24 3 35 6 26 6 -24 23 -23 23 2 0 11
-7 20 -15 20 -10 0 -15 10 -16 28 0 15 -4 36 -8 47 -5 12 -7 -6 -4 -45z"/>
<path d="M1884 2851 c0 -11 4 -17 9 -14 4 2 16 -1 25 -8 9 -8 6 -1 -7 14 -14
15 -25 27 -26 27 0 0 -1 -9 -1 -19z"/>
<path d="M341 2844 c0 -11 3 -14 6 -6 3 7 2 16 -1 19 -3 4 -6 -2 -5 -13z"/>
<path d="M1900 2795 c0 -8 9 -19 20 -25 11 -6 20 -7 19 -3 -5 29 2 36 17 17
14 -18 15 -18 4 4 -12 25 -60 32 -60 7z"/>
<path d="M1980 2757 c0 -8 7 -17 15 -21 8 -3 15 -12 15 -21 0 -8 5 -15 10 -15
16 0 12 10 -15 42 -15 18 -25 24 -25 15z"/>
<path d="M2040 2694 c0 -17 17 -36 24 -26 3 5 -1 15 -9 22 -8 7 -15 9 -15 4z"/>
<path d="M1600 2661 l-35 -29 50 11 c28 6 42 13 32 15 -11 2 -16 9 -13 18 7
19 5 18 -34 -15z"/>
<path d="M1837 2675 c-16 -12 -16 -13 9 -19 14 -4 29 -5 32 -1 3 3 -3 5 -14 5
-14 0 -16 2 -5 9 7 5 9 11 4 14 -4 3 -16 -1 -26 -8z"/>
<path d="M1710 2670 c-35 -8 -35 -8 6 -5 24 1 57 -5 78 -16 43 -21 48 -11 7
14 -31 18 -36 18 -91 7z"/>
<path d="M10 2645 c0 -6 56 -35 67 -35 10 0 -27 25 -49 33 -10 4 -18 4 -18 2z"/>
<path d="M2088 2617 l34 -35 -22 -15 c-21 -15 -22 -17 -5 -33 14 -15 18 -15
26 -3 5 8 6 22 3 33 -4 12 -2 16 5 12 23 -15 10 14 -16 34 -16 12 -27 25 -25
28 2 4 -5 9 -15 10 -13 3 -9 -6 15 -31z m32 -67 c0 -5 -4 -10 -10 -10 -5 0
-10 5 -10 10 0 6 5 10 10 10 6 0 10 -4 10 -10z"/>
<path d="M1530 2630 c0 -5 5 -10 11 -10 5 0 7 5 4 10 -3 6 -8 10 -11 10 -2 0
-4 -4 -4 -10z"/>
<path d="M105 2605 c-16 -7 -24 -14 -17 -14 22 -2 12 -15 -38 -55 l-50 -39 0
-374 c0 -353 1 -373 18 -373 10 0 22 4 28 9 17 16 84 23 84 9 0 -10 3 -9 9 2
6 8 7 18 5 22 -3 4 2 8 10 8 9 0 16 -7 16 -15 0 -8 -5 -15 -11 -15 -6 0 -3 -8
7 -17 13 -13 19 -14 22 -5 2 6 10 12 18 12 20 0 17 37 -3 49 -15 8 -14 11 12
22 17 8 34 19 38 26 5 8 12 11 18 8 8 -6 12 0 25 45 5 13 6 13 14 0 7 -11 10
-7 10 15 0 17 7 41 15 55 8 14 14 40 15 58 0 23 5 32 18 33 14 0 14 2 -3 9
-11 5 -15 9 -9 9 8 1 6 19 -4 58 -11 43 -11 62 -3 75 9 14 8 18 -4 18 -18 0
-47 66 -40 90 3 10 -1 23 -10 30 -8 7 -15 19 -15 27 0 8 -14 27 -31 42 -28 26
-29 30 -15 44 12 11 14 21 7 39 l-10 23 0 -23 c-1 -13 -5 -20 -11 -17 -5 3
-10 1 -10 -5 0 -6 -5 -8 -10 -5 -6 4 -8 9 -6 13 2 4 -2 13 -10 20 -8 7 -14 11
-14 8 0 -3 -10 5 -23 17 -27 25 -24 47 5 47 17 0 18 3 8 15 -15 18 -17 18 -55
0z"/>
<path d="M1490 2611 c0 -5 5 -11 12 -13 8 -3 4 -13 -11 -29 -23 -23 -24 -23
-18 -2 3 16 1 20 -10 16 -11 -4 -13 -15 -9 -37 4 -22 3 -27 -4 -16 -7 11 -14
3 -32 -37 -13 -29 -31 -55 -40 -59 -10 -3 -18 -12 -18 -20 0 -8 -9 -34 -19
-57 -10 -23 -26 -59 -34 -79 -9 -21 -22 -38 -29 -38 -8 -1 -7 -6 5 -14 12 -9
14 -16 7 -21 -6 -4 -8 -16 -4 -27 4 -14 2 -18 -5 -14 -8 5 -11 -12 -11 -53 0
-34 4 -61 9 -61 5 0 12 -25 16 -55 4 -38 11 -55 21 -55 12 0 19 -19 15 -42 0
-5 4 -8 10 -8 5 0 8 -3 5 -8 -8 -13 22 -45 39 -39 18 7 88 -37 77 -48 -4 -5 1
-5 10 -2 24 8 119 -27 139 -52 16 -19 29 -22 136 -24 133 -3 156 0 149 19 -6
17 30 38 47 27 27 -17 37 -12 32 15 -4 15 -8 41 -11 57 -21 124 -59 241 -109
342 -68 135 -131 221 -243 330 -46 45 -81 86 -78 91 3 6 -1 13 -10 16 -22 9
-34 7 -34 -3z"/>
<path d="M1870 2616 c0 -3 9 -10 20 -16 11 -6 20 -8 20 -6 0 3 -9 10 -20 16
-11 6 -20 8 -20 6z"/>
<path d="M1945 2560 c3 -5 11 -10 16 -10 6 0 7 5 4 10 -3 6 -11 10 -16 10 -6
0 -7 -4 -4 -10z"/>
<path d="M1985 2520 c14 -16 20 -17 27 -8 6 10 8 10 8 -1 0 -8 3 -12 6 -8 4 3
3 14 0 24 -6 15 -9 15 -17 3 -8 -11 -12 -12 -16 -2 -2 6 -9 12 -15 12 -6 0 -3
-9 7 -20z"/>
<path d="M2160 2522 c0 -5 7 -15 15 -22 8 -7 15 -9 15 -6 0 4 -7 14 -15 22 -8
9 -15 11 -15 6z"/>
<path d="M2046 2435 c9 -14 19 -24 21 -21 7 7 -16 46 -28 46 -5 0 -2 -11 7
-25z"/>
<path d="M2210 2445 c7 -8 10 -21 7 -28 -3 -8 1 -14 9 -14 17 0 17 0 2 32 -6
14 -16 25 -21 25 -5 0 -4 -7 3 -15z"/>
<path d="M1155 2440 c-3 -5 1 -10 10 -10 9 0 13 5 10 10 -3 6 -8 10 -10 10 -2
0 -7 -4 -10 -10z"/>
<path d="M2105 2410 c3 -5 10 -10 16 -10 5 0 9 5 9 10 0 6 -7 10 -16 10 -8 0
-12 -4 -9 -10z"/>
<path d="M2098 2350 c14 -27 28 -47 30 -45 2 2 1 23 -3 46 -4 25 -10 37 -15
29 -5 -8 -9 -7 -13 4 -4 9 -11 16 -16 16 -6 0 2 -22 17 -50z"/>
<path d="M2250 2380 c-1 -13 38 -112 49 -123 6 -6 11 -8 11 -5 0 7 -59 134
-60 128z"/>
<path d="M976 2262 c-2 -4 4 -8 14 -8 10 0 16 4 14 8 -3 4 -9 8 -14 8 -5 0
-11 -4 -14 -8z"/>
<path d="M2146 2262 c-3 -6 0 -16 7 -23 7 -7 11 -24 9 -37 -3 -15 -1 -23 5
-19 12 8 9 48 -5 72 -6 11 -12 14 -16 7z"/>
<path d="M930 2236 c7 -7 14 -6 21 1 9 9 7 12 -9 10 -14 -1 -18 -5 -12 -11z"/>
<path d="M2310 2228 c0 -3 7 -21 15 -39 10 -24 14 -28 14 -14 0 11 -6 29 -14
39 -8 11 -15 17 -15 14z"/>
<path d="M2348 2129 c-3 -9 -2 -22 2 -30 13 -19 18 -8 10 21 -4 19 -7 21 -12
9z"/>
<path d="M760 2109 c0 -9 -7 -22 -15 -29 -21 -17 -19 -33 8 -58 23 -22 85 -31
101 -14 4 4 11 7 15 7 4 0 16 8 26 19 19 18 18 19 -8 42 -15 13 -27 27 -27 33
0 5 -23 11 -50 13 -41 2 -50 0 -50 -13z"/>
<path d="M2170 2023 c-7 -43 -13 -88 -12 -100 0 -13 -5 -23 -12 -23 -16 0 -81
-70 -90 -95 -6 -19 -5 -19 8 -2 15 19 32 25 78 26 26 1 27 3 26 54 -2 61 10
134 23 143 10 6 9 74 -1 74 -4 0 -12 -35 -20 -77z m-20 -143 c0 -5 -4 -10 -10
-10 -5 0 -10 5 -10 10 0 6 5 10 10 10 6 0 10 -4 10 -10z"/>
<path d="M2350 2069 c0 -5 5 -7 10 -4 6 3 10 8 10 11 0 2 -4 4 -10 4 -5 0 -10
-5 -10 -11z"/>
<path d="M2368 2030 c-3 -16 -1 -30 4 -30 4 0 8 -5 8 -11 0 -5 -5 -7 -11 -3
-7 4 -10 1 -7 -6 2 -8 10 -16 17 -18 10 -3 11 7 5 44 -8 60 -10 63 -16 24z"/>
<path d="M833 1992 c-27 -3 -33 -7 -33 -28 0 -13 4 -24 9 -24 20 0 41 13 41
25 0 7 6 15 13 18 20 7 4 12 -30 9z"/>
<path d="M466 1930 c-31 -10 -76 -47 -76 -64 0 -6 5 -4 11 4 8 11 9 8 4 -15
-4 -16 -10 -32 -14 -35 -5 -3 -5 -14 0 -25 7 -19 8 -19 8 3 1 22 11 28 24 15
11 -10 152 -23 152 -13 0 2 12 3 28 4 31 2 35 -8 10 -22 -12 -7 -18 -27 -21
-76 -4 -67 5 -162 15 -152 3 3 21 -15 40 -39 19 -25 39 -45 45 -45 6 0 8 -11
4 -27 -6 -26 -5 -27 8 -9 8 10 20 15 26 11 16 -10 170 -13 164 -3 -7 10 61 21
85 13 15 -5 21 -2 21 9 0 9 -9 16 -21 16 -12 0 -17 4 -14 11 4 6 14 8 23 4 9
-3 14 -3 10 0 -3 4 4 22 16 40 27 39 39 123 26 179 -7 31 -5 42 8 55 14 15 14
16 -12 19 -31 4 -77 43 -58 50 7 2 10 8 7 12 -3 5 -13 6 -22 3 -11 -4 -14 -3
-9 5 4 7 1 12 -9 12 -9 0 -30 8 -48 17 -30 16 -130 26 -121 12 2 -4 -11 -10
-30 -13 -19 -4 -39 -13 -46 -21 -15 -18 -37 -19 -43 -2 -2 6 -8 8 -13 4 -5 -4
-2 -12 5 -17 9 -5 11 -15 7 -26 -5 -14 -9 -15 -15 -6 -4 7 -15 10 -23 7 -11
-4 -17 2 -22 20 -4 15 -25 37 -54 56 -31 20 -39 28 -22 24 19 -5 22 -4 10 4
-17 12 -25 12 -64 1z"/>
<path d="M1099 1932 c9 -7 10 -12 2 -16 -6 -4 -11 -31 -11 -60 0 -51 2 -54 31
-67 28 -11 33 -10 44 4 7 9 20 17 29 17 9 0 15 3 14 8 -1 4 2 19 6 34 9 31 1
64 -18 71 -28 11 -111 18 -97 9z"/>
<path d="M728 1903 c7 -3 16 -2 19 1 4 3 -2 6 -13 5 -11 0 -14 -3 -6 -6z"/>
<path d="M2020 1800 c-9 -6 -10 -10 -3 -10 6 0 15 5 18 10 8 12 4 12 -15 0z"/>
<path d="M1135 1770 l-30 -8 33 -1 c17 0 32 4 32 9 0 6 -1 9 -2 9 -2 -1 -16
-5 -33 -9z"/>
<path d="M545 1670 c3 -5 11 -10 16 -10 6 0 7 5 4 10 -3 6 -11 10 -16 10 -6 0
-7 -4 -4 -10z"/>
<path d="M1730 1640 c0 -5 11 -9 25 -8 14 1 25 6 25 10 0 4 -11 8 -25 8 -14 0
-25 -4 -25 -10z"/>
<path d="M2391 1614 c0 -11 3 -14 6 -6 3 7 2 16 -1 19 -3 4 -6 -2 -5 -13z"/>
<path d="M1658 1597 c-8 -9 -19 -13 -22 -9 -4 3 -21 -1 -39 -10 -55 -29 -101
-45 -120 -42 -9 1 -17 -1 -17 -6 0 -4 -10 -6 -22 -2 -21 5 -22 4 -9 -11 12
-15 11 -17 -8 -17 -12 0 -19 -4 -16 -10 3 -5 2 -10 -4 -10 -17 0 -71 -58 -71
-75 0 -9 -4 -13 -10 -10 -5 3 -11 -2 -12 -12 -2 -28 -4 -36 -18 -68 -17 -40
-23 -125 -8 -125 7 0 9 -21 6 -60 -3 -48 -1 -61 11 -65 18 -6 51 -79 51 -113
0 -13 4 -21 9 -18 5 4 7 -3 4 -14 -4 -15 0 -20 16 -20 24 0 24 0 11 -34 -9
-25 -4 -31 22 -27 9 1 21 -37 14 -47 -2 -4 -1 -14 5 -22 6 -11 9 -8 9 13 0 32
10 34 35 7 10 -11 26 -22 36 -25 11 -4 17 -11 13 -16 -3 -6 -3 -21 0 -33 5
-19 15 -25 53 -32 27 -4 51 -7 56 -6 11 3 9 -16 -3 -23 -20 -12 -10 -35 15
-35 18 0 25 5 25 20 0 17 7 20 43 22 l42 1 -42 6 c-52 7 -47 19 24 55 66 33
227 130 270 163 53 41 57 22 7 -35 -26 -29 -44 -55 -41 -58 2 -3 22 15 42 40
21 26 43 46 50 46 9 0 12 10 10 30 -3 18 0 28 5 25 6 -4 10 1 10 10 0 9 8 27
17 41 l17 26 9 -23 c9 -23 10 -23 17 10 5 18 12 36 17 40 4 3 9 20 9 36 2 30
5 44 17 78 4 9 10 25 13 35 6 15 5 65 -2 132 -1 14 -3 36 -3 49 -1 18 -5 22
-20 18 -17 -4 -19 1 -17 49 1 30 -1 49 -5 43 -4 -6 -11 -9 -16 -6 -16 10 -9
-37 7 -50 11 -9 11 -12 2 -13 -6 0 -73 -61 -148 -136 -75 -74 -138 -133 -141
-130 -3 3 6 32 20 63 27 60 71 222 82 305 7 43 9 47 27 37 10 -6 24 -8 31 -5
7 2 4 5 -5 5 -10 1 -18 8 -18 16 0 12 -13 15 -59 15 -43 0 -60 4 -65 15 -4 12
-24 15 -93 14 -62 -1 -79 -4 -58 -9 l30 -8 -37 -1 c-20 0 -38 4 -40 10 -3 8
-9 6 -20 -4z m172 -1 c0 -9 -30 -14 -35 -6 -4 6 3 10 14 10 12 0 21 -2 21 -4z
m357 -348 c-3 -7 -5 -2 -5 12 0 14 2 19 5 13 2 -7 2 -19 0 -25z m-27 -186 c0
-5 -7 -17 -16 -28 -14 -17 -15 -17 -10 -1 3 10 6 23 6 28 0 5 5 9 10 9 6 0 10
-4 10 -8z"/>
<path d="M0 1205 c0 -307 2 -375 14 -382 7 -4 35 -27 61 -50 47 -43 64 -51 66
-33 1 6 2 14 3 20 0 5 7 15 14 22 9 9 12 9 12 -2 0 -17 37 25 45 51 5 16 13
18 40 13 25 -4 39 -2 50 10 15 15 15 16 -4 16 -29 0 -27 46 5 135 14 39 30 88
35 109 13 51 20 61 30 45 4 -7 11 -11 14 -7 9 8 -5 98 -15 98 -4 0 -5 -11 -2
-25 3 -16 0 -25 -8 -25 -9 0 -11 21 -8 76 2 41 2 71 0 65 -7 -20 -22 0 -22 29
0 19 -7 33 -19 40 -12 6 -17 17 -14 29 4 15 -3 21 -31 31 -28 9 -38 19 -44 43
-7 28 -13 32 -47 35 -21 2 -45 11 -52 20 -12 16 -14 16 -23 1 -10 -17 -60 -15
-60 2 0 5 -9 9 -20 9 -20 0 -20 -7 -20 -375z"/>
<path d="M1498 1553 c7 -3 16 -2 19 1 4 3 -2 6 -13 5 -11 0 -14 -3 -6 -6z"/>
<path d="M433 1535 c-9 -9 -9 -16 0 -25 7 -7 7 -10 1 -7 -6 3 -18 -7 -28 -24
-9 -16 -13 -29 -8 -29 6 0 13 -12 17 -27 4 -16 10 -22 12 -15 3 8 9 10 16 4 7
-6 35 -12 62 -15 28 -3 44 -3 38 0 -7 2 -13 12 -13 21 0 8 3 13 6 9 3 -3 15 3
27 14 19 17 23 18 41 4 35 -25 48 -29 57 -14 6 10 -2 20 -29 36 -20 13 -38 18
-40 13 -4 -12 -23 -14 -21 -2 4 21 -3 32 -20 32 -11 0 -21 4 -23 9 -6 17 -82
29 -95 16z m34 -11 c-3 -3 -12 -4 -19 -1 -8 3 -5 6 6 6 11 1 17 -2 13 -5z"/>
<path d="M1113 1525 c-13 -7 -20 -14 -17 -18 3 -3 1 -15 -5 -26 -13 -23 7 -64
39 -81 26 -14 80 8 90 36 6 16 15 22 25 18 8 -3 15 -1 15 5 0 6 -4 11 -8 11
-18 0 -52 38 -47 51 7 18 -60 21 -92 4z"/>
<path d="M2100 1480 c0 -5 5 -10 11 -10 5 0 7 5 4 10 -3 6 -8 10 -11 10 -2 0
-4 -4 -4 -10z"/>
<path d="M713 1355 c0 -22 2 -30 4 -17 2 12 2 30 0 40 -3 9 -5 -1 -4 -23z"/>
<path d="M377 1363 c-4 -3 -7 -15 -7 -25 0 -14 8 -18 33 -18 l32 1 -27 15
c-16 8 -28 17 -28 20 0 3 4 3 9 -1 5 -3 12 -1 16 5 7 11 -18 14 -28 3z"/>
<path d="M788 1343 c17 -7 5 -23 -19 -23 -16 0 -19 -7 -19 -39 0 -22 7 -46 15
-54 14 -15 102 -33 112 -23 3 3 7 25 9 50 3 42 0 48 -30 71 -18 14 -44 25 -57
24 -13 0 -18 -3 -11 -6z m82 -123 c0 -5 -5 -10 -11 -10 -5 0 -7 5 -4 10 3 6 8
10 11 10 2 0 4 -4 4 -10z"/>
<path d="M2320 1161 c0 -6 4 -13 10 -16 6 -3 7 1 4 9 -7 18 -14 21 -14 7z"/>
<path d="M695 1101 c-19 -8 -19 -8 2 -15 25 -8 46 0 38 15 -7 10 -13 10 -40 0z"/>
<path d="M722 1074 c-31 -7 -63 -23 -79 -38 -28 -28 -37 -27 -54 7 -12 21 -11
21 8 5 22 -20 33 -23 33 -8 0 6 -6 10 -14 10 -8 0 -17 6 -19 13 -3 8 -14 1
-30 -18 -14 -16 -23 -34 -20 -39 4 -5 11 -2 18 7 7 9 15 14 18 10 4 -3 -5 -16
-18 -29 -14 -13 -25 -25 -25 -26 3 -10 -14 -38 -22 -38 -15 0 -37 -32 -38 -52
0 -10 -11 -25 -24 -33 -13 -9 -27 -30 -31 -48 -4 -18 -9 -34 -10 -37 -12 -30
-19 -39 -27 -33 -7 4 -9 -4 -6 -21 3 -14 1 -26 -3 -26 -5 0 -9 -9 -9 -19 0
-11 -4 -23 -10 -26 -6 -3 -10 -15 -10 -25 0 -10 -10 -26 -22 -35 -21 -15 -22
-17 -5 -26 12 -7 17 -23 17 -59 0 -28 -4 -50 -10 -50 -5 0 -10 -11 -10 -25 0
-14 5 -25 10 -25 6 0 10 10 10 23 1 20 2 20 11 4 12 -21 59 -72 59 -64 0 3
-11 27 -25 54 -26 49 -47 146 -38 170 7 18 20 16 89 -7 147 -51 229 -63 439
-64 190 -1 271 7 393 40 18 5 22 2 22 -17 -1 -13 -9 -49 -20 -79 -10 -30 -16
-57 -14 -59 3 -3 7 5 11 17 3 12 9 22 14 22 5 0 9 7 9 15 0 8 5 15 10 15 6 0
10 -5 10 -12 0 -6 3 -8 6 -5 4 4 1 13 -6 22 -8 10 -9 15 -1 15 7 0 11 20 11
49 0 28 5 53 10 56 13 8 13 55 0 55 -14 0 -32 -49 -24 -62 4 -7 2 -8 -4 -4 -7
4 -12 18 -12 32 0 14 -4 22 -10 19 -6 -4 -10 9 -10 31 0 38 -16 74 -85 193
-14 24 -25 54 -25 66 0 18 -9 26 -35 35 -19 6 -47 27 -61 45 -14 19 -41 39
-60 45 -19 7 -39 20 -44 31 -6 10 -15 19 -21 19 -6 0 -8 -4 -4 -9 3 -6 -7 -6
-27 0 -41 11 -119 9 -186 -7z"/>
<path d="M2297 1071 c-3 -13 -10 -20 -16 -16 -6 3 -11 2 -11 -4 0 -5 4 -12 9
-16 12 -7 34 31 28 48 -2 6 -6 1 -10 -12z"/>
<path d="M2239 1015 c5 -16 11 -37 13 -45 3 -9 10 -3 20 17 13 27 14 33 2 37
-8 3 -14 0 -14 -6 0 -7 -7 -3 -15 8 -14 18 -14 17 -6 -11z"/>
<path d="M1301 1011 c-9 -16 -10 -26 -2 -34 13 -13 25 12 19 40 -3 16 -5 15
-17 -6z"/>
<path d="M2212 900 c0 -14 2 -19 5 -12 2 6 2 18 0 25 -3 6 -5 1 -5 -13z"/>
<path d="M2176 851 c4 -16 3 -21 -5 -17 -7 5 -11 -1 -11 -16 l0 -22 16 22 c11
17 12 26 4 39 -9 15 -10 14 -4 -6z"/>
<path d="M380 806 c0 -7 7 -13 15 -13 8 0 15 4 15 8 0 4 -7 9 -15 13 -9 3 -15
0 -15 -8z"/>
<path d="M2134 775 c-11 -27 2 -37 14 -11 7 16 8 26 1 26 -5 0 -12 -7 -15 -15z"/>
<path d="M1952 766 c7 -7 19 -11 27 -8 11 4 10 7 -5 13 -29 12 -36 10 -22 -5z"/>
<path d="M1891 734 c-19 -13 -28 -24 -20 -24 8 0 28 11 44 25 38 31 21 31 -24
-1z"/>
<path d="M180 711 c0 -5 7 -11 15 -15 9 -3 15 0 15 9 0 8 -7 15 -15 15 -8 0
-15 -4 -15 -9z"/>
<path d="M1816 697 c-16 -12 -13 -13 22 -13 22 1 44 5 49 10 5 5 1 7 -9 3 -10
-3 -20 -2 -23 3 -8 13 -18 12 -39 -3z"/>
<path d="M56 686 c9 -7 26 -11 36 -8 27 7 13 19 -23 20 -28 1 -29 -1 -13 -12z"/>
<path d="M2060 670 c-30 -30 -36 -40 -22 -40 4 0 20 16 35 35 34 43 28 45 -13
5z"/>
<path d="M321 674 c0 -11 3 -14 6 -6 3 7 2 16 -1 19 -3 4 -6 -2 -5 -13z"/>
<path d="M1993 608 c4 -11 0 -21 -11 -27 -9 -5 -14 -12 -11 -15 3 -4 16 2 27
13 21 17 21 19 5 32 -15 12 -16 12 -10 -3z"/>
<path d="M1867 538 c-3 -10 -2 -18 4 -18 11 0 8 -38 -4 -57 -12 -20 -3 -16 29
12 16 14 22 23 13 20 -12 -4 -18 3 -25 27 -8 26 -11 29 -17 16z"/>
<path d="M1935 528 l-20 -21 22 12 c23 12 40 31 26 30 -4 0 -17 -10 -28 -21z"/>
<path d="M1817 430 c-9 -11 -14 -20 -11 -20 13 0 44 21 44 30 0 16 -14 11 -33
-10z"/>
<path d="M1699 398 c-6 -26 -6 -37 2 -32 5 3 9 0 9 -5 0 -6 -4 -11 -10 -11 -5
0 -10 -7 -10 -16 0 -14 3 -14 15 -4 17 14 20 56 5 65 -5 3 -10 5 -11 3z"/>
<path d="M1769 379 c-23 -19 -23 -20 -2 -10 12 6 25 16 28 21 10 16 -1 12 -26
-11z"/>
<path d="M1198 333 c-28 -30 -27 -53 2 -53 13 0 17 5 13 20 -3 12 2 29 12 40
10 11 14 20 8 20 -5 0 -21 -12 -35 -27z"/>
<path d="M430 330 c6 -11 16 -20 22 -20 6 0 3 9 -7 20 -10 11 -20 20 -22 20
-2 0 1 -9 7 -20z"/>
<path d="M1267 343 c-4 -3 -7 -11 -7 -17 0 -6 5 -5 12 2 6 6 9 14 7 17 -3 3
-9 2 -12 -2z"/>
<path d="M1660 321 c0 -13 -70 -52 -81 -46 -5 4 -9 -1 -9 -10 0 -14 9 -12 52
12 49 28 72 53 49 53 -6 0 -11 -4 -11 -9z"/>
<path d="M3 290 c-1 -12 9 -22 29 -29 18 -6 28 -8 24 -4 -3 4 4 13 16 20 21
11 18 12 -21 7 -29 -4 -41 -3 -37 4 3 6 3 13 -2 16 -4 2 -8 -4 -9 -14z"/>
<path d="M1145 290 c-3 -5 -1 -10 4 -10 6 0 11 5 11 10 0 6 -2 10 -4 10 -3 0
-8 -4 -11 -10z"/>
<path d="M1103 270 c-30 -12 -29 -15 10 -17 17 0 26 1 19 4 -6 2 -10 9 -6 14
6 11 6 11 -23 -1z"/>
<path d="M80 240 c0 -5 5 -10 11 -10 5 0 7 5 4 10 -3 6 -8 10 -11 10 -2 0 -4
-4 -4 -10z"/>
<path d="M116 235 c-3 -10 9 -21 41 -35 25 -11 49 -18 52 -15 3 3 -5 8 -17 12
-12 3 -22 10 -22 16 0 10 -29 36 -41 37 -4 0 -9 -7 -13 -15z"/>
<path d="M1023 236 c-39 -14 -52 -26 -30 -26 9 0 22 -9 29 -20 15 -23 48 -27
48 -5 0 7 -8 18 -17 24 -17 9 -17 10 0 16 9 4 17 11 17 16 0 11 -5 10 -47 -5z"/>
<path d="M1506 229 c-11 -10 -17 -19 -14 -19 8 0 68 31 68 36 0 12 -37 0 -54
-17z"/>
<path d="M610 220 c0 -5 12 -10 26 -10 14 0 23 4 19 10 -3 6 -15 10 -26 10
-10 0 -19 -4 -19 -10z"/>
<path d="M910 210 l-25 -8 27 -1 c15 -1 30 4 33 9 7 11 0 11 -35 0z"/>
<path d="M768 203 c6 -2 18 -2 25 0 6 3 1 5 -13 5 -14 0 -19 -2 -12 -5z"/>
<path d="M1359 206 c-7 -11 -4 -36 4 -36 7 0 5 -4 -3 -10 -8 -5 -24 -7 -35 -4
-17 4 -18 4 -3 -6 12 -7 28 -5 62 10 25 10 46 22 46 25 0 4 -4 3 -10 0 -5 -3
-10 -2 -10 3 0 7 -47 24 -51 18z"/>
<path d="M1440 200 c0 -5 6 -10 14 -10 8 0 18 5 21 10 3 6 -3 10 -14 10 -12 0
-21 -4 -21 -10z"/>
<path d="M255 160 c11 -5 40 -8 65 -8 l45 0 -40 9 c-22 4 -51 8 -65 8 -23 0
-23 -1 -5 -9z"/>
<path d="M345 130 c3 -5 10 -10 16 -10 5 0 9 5 9 10 0 6 -7 10 -16 10 -8 0
-12 -4 -9 -10z"/>
<path d="M400 120 c0 -5 9 -10 19 -10 11 0 28 -3 38 -6 10 -3 7 2 -7 10 -29
18 -50 20 -50 6z"/>
<path d="M1230 120 c-11 -8 -7 -9 15 -4 37 8 45 14 19 14 -10 0 -26 -5 -34
-10z"/>
<path d="M503 93 c9 -2 23 -2 30 0 6 3 -1 5 -18 5 -16 0 -22 -2 -12 -5z"/>
<path d="M997 82 c10 -11 26 -10 85 1 l73 14 -86 -1 c-70 -1 -83 -3 -72 -14z"/>
<path d="M580 80 c19 -5 76 -12 125 -14 87 -4 87 -4 20 4 -170 19 -182 20
-145 10z"/>
</g>
</svg>
